# Blender 4.0.0
# www.blender.org
mtllib spritebase.mtl
o Cube
v 1.000000 0.040000 -1.000000
v 1.000000 -0.040000 -1.000000
v 1.000000 0.040000 1.000000
v 1.000000 -0.040000 1.000000
v -1.000000 0.040000 -1.000000
v -1.000000 -0.040000 -1.000000
v -1.000000 0.040000 1.000000
v -1.000000 -0.040000 1.000000
vn -0.0000 1.0000 -0.0000
vn -0.0000 -0.0000 1.0000
vn -1.0000 -0.0000 -0.0000
vn -0.0000 -1.0000 -0.0000
vn 1.0000 -0.0000 -0.0000
vn -0.0000 -0.0000 -1.0000
vt 1.000000 0.500000
vt 1.000000 0.750000
vt 1.000000 1.000000
vt 0.625000 1.000000
vt 0.375000 1.000000
vt 0.375000 0.000000
vt 0.625000 0.000000
vt 1.000000 0.000000
vt 0.000000 0.000000
vt 0.000000 1.000000
s 0
usemtl Material
f 1/1/1 5/1/1 7/2/1 3/3/1
f 4/3/2 3/3/2 7/4/2 8/5/2
f 8/6/3 7/7/3 5/8/3 6/7/3
f 6/9/4 2/8/4 4/3/4 8/10/4
f 2/8/5 1/1/5 3/3/5 4/3/5
f 6/7/6 5/8/6 1/1/6 2/8/6
